<svg xmlns="http://www.w3.org/2000/svg" viewBox="0 0 1000 1000"><path d="M456.15 134.24c-2.5 1.14-7.04 4.77-10.22 8.17l-5.68 6.13-1.14 65.39c-.91 58.58-1.59 65.84-5.22 69.93-2.27 2.27-16.58 10.67-31.79 18.16-53.58 26.79-96.04 57.9-144.86 106.03-41.32 41.1-37.24 40.87-85.37 2.73C125.33 374 49.49 327.45 35.64 327.45c-18.39 0-27.25 11.81-24.75 32.69 2.27 19.3 16.12 64.94 29.97 98.77 17.26 41.32 17.48 45.64 4.77 72.88C26.8 572 10 626.71 10 648.06c0 9.76.91 12.26 7.04 17.94 11.81 11.13 21.12 9.54 54.04-9.31 35.65-20.43 72.66-45.18 100.81-67.43 34.51-27.47 35.42-27.93 45.18-27.93 8.63 0 10.9 1.82 43.37 33.6 19.07 18.39 45.18 41.55 58.35 51.31 26.79 19.98 68.57 45.41 94 56.99 27.47 12.71 26.34 9.54 26.34 79.92 0 63.8.91 69.71 11.35 79.01 9.54 8.63 20.89 6.36 51.09-10.9 50.86-29.06 97.86-61.99 135.55-95.14 14.98-13.17 15.44-13.4 45.64-21.12 85.14-21.34 166.88-68.12 235.23-133.96 34.74-33.6 60.62-66.75 68.79-88.32 3.86-9.99 4.09-12.49 1.59-21.57-4.54-15.89-27.02-47.45-53.81-75.38-71.75-74.93-159.39-127.6-250.89-150.53l-30.88-7.72-18.84-16.58c-36.33-31.56-81.51-62.89-131.69-91.5-26.58-15.2-37.7-18.83-46.11-15.2zm338.31 316.74c19.98 9.31 31.11 26.79 31.11 49.04 0 57.44-76.52 75.15-103.31 23.84-6.58-12.72-6.36-35.19.23-48.14 13.62-26.33 45.4-37.23 71.97-24.74z" fill="#5a5858"/></svg>